<svg xmlns="http://www.w3.org/2000/svg" viewBox="48 48 998 212" width="1996" height="424" style="background:white">
<rect x="60" y="60" width="110" height="56" fill="#fff9db" stroke="#1e1e1e" stroke-width="1" rx="6"/>
<text x="115.0" y="92.8" font-family="'Segoe Print', 'Comic Sans MS', cursive, sans-serif" font-size="19" fill="#1e1e1e" text-anchor="middle">PRD</text>
<path d="M 170.0 88.0 L 192.0 88.0" fill="none" stroke="#1e1e1e" stroke-width="1" stroke-linejoin="round"/>
<line x1="192.0" y1="88.0" x2="184.2" y2="92.5" stroke="#1e1e1e" stroke-width="1" stroke-linecap="round"/>
<line x1="192.0" y1="88.0" x2="184.2" y2="83.5" stroke="#1e1e1e" stroke-width="1" stroke-linecap="round"/>
<rect x="192" y="60" width="249.94531249999997" height="56" fill="#fff9db" stroke="#1e1e1e" stroke-width="1" rx="6"/>
<text x="312.0" y="92.8" font-family="'Segoe Print', 'Comic Sans MS', cursive, sans-serif" font-size="19" fill="#1e1e1e" text-anchor="middle">Architecture</text>
<path d="M 432.0 88.0 L 454.0 88.0" fill="none" stroke="#1e1e1e" stroke-width="1" stroke-linejoin="round"/>
<line x1="454.0" y1="88.0" x2="446.2" y2="92.5" stroke="#1e1e1e" stroke-width="1" stroke-linecap="round"/>
<line x1="454.0" y1="88.0" x2="446.2" y2="83.5" stroke="#1e1e1e" stroke-width="1" stroke-linecap="round"/>
<rect x="454" y="60" width="134" height="56" fill="#fff9db" stroke="#1e1e1e" stroke-width="1" rx="6"/>
<text x="521.0" y="92.8" font-family="'Segoe Print', 'Comic Sans MS', cursive, sans-serif" font-size="19" fill="#1e1e1e" text-anchor="middle">Milestones</text>
<path d="M 588.0 88.0 L 610.0 88.0" fill="none" stroke="#1e1e1e" stroke-width="1" stroke-linejoin="round"/>
<line x1="610.0" y1="88.0" x2="602.2" y2="92.5" stroke="#1e1e1e" stroke-width="1" stroke-linecap="round"/>
<line x1="610.0" y1="88.0" x2="602.2" y2="83.5" stroke="#1e1e1e" stroke-width="1" stroke-linecap="round"/>
<rect x="610" y="60" width="106" height="56" fill="#fff9db" stroke="#1e1e1e" stroke-width="1" rx="6"/>
<text x="663.0" y="92.8" font-family="'Segoe Print', 'Comic Sans MS', cursive, sans-serif" font-size="19" fill="#1e1e1e" text-anchor="middle">Testing</text>
<path d="M 716.0 88.0 L 774.0 88.0" fill="none" stroke="#1e1e1e" stroke-width="1" stroke-linejoin="round"/>
<line x1="774.0" y1="88.0" x2="766.2" y2="92.5" stroke="#1e1e1e" stroke-width="1" stroke-linecap="round"/>
<line x1="774.0" y1="88.0" x2="766.2" y2="83.5" stroke="#1e1e1e" stroke-width="1" stroke-linecap="round"/>
<ellipse cx="730.1" cy="85.0" rx="5.9" ry="16.0" fill="none" stroke="#e8590c" stroke-width="1"/>
<path d="M 730.2 104.4 L 730.2 137.4" fill="none" stroke="#e8590c" stroke-width="1" stroke-linejoin="round"/>
<line x1="730.2" y1="137.4" x2="725.7" y2="129.6" stroke="#e8590c" stroke-width="1" stroke-linecap="round"/>
<line x1="730.2" y1="137.4" x2="734.7" y2="129.6" stroke="#e8590c" stroke-width="1" stroke-linecap="round"/>
<text x="726.3" y="150.5" font-family="'Segoe Print', 'Comic Sans MS', cursive, sans-serif" font-size="13" fill="#e8590c" text-anchor="middle">design accepted</text>
<rect x="774" y="60" width="122" height="56" fill="#fff9db" stroke="#1e1e1e" stroke-width="1" rx="6"/>
<text x="835.0" y="92.8" font-family="'Segoe Print', 'Comic Sans MS', cursive, sans-serif" font-size="19" fill="#1e1e1e" text-anchor="middle">Roadmap</text>
<path d="M 896.0 88.0 L 918.0 88.0" fill="none" stroke="#1e1e1e" stroke-width="1" stroke-linejoin="round"/>
<line x1="918.0" y1="88.0" x2="910.2" y2="92.5" stroke="#1e1e1e" stroke-width="1" stroke-linecap="round"/>
<line x1="918.0" y1="88.0" x2="910.2" y2="83.5" stroke="#1e1e1e" stroke-width="1" stroke-linecap="round"/>
<rect x="918" y="60" width="116" height="56" fill="#fff9db" stroke="#1e1e1e" stroke-width="1" rx="6"/>
<text x="976.0" y="92.8" font-family="'Segoe Print', 'Comic Sans MS', cursive, sans-serif" font-size="19" fill="#1e1e1e" text-anchor="middle">Features</text>
<rect x="68" y="132" width="94" height="44" fill="#fff9db" stroke="#1e1e1e" stroke-width="1" rx="6"/>
<text x="115.0" y="157.8" font-family="'Segoe Print', 'Comic Sans MS', cursive, sans-serif" font-size="15" fill="#1e1e1e" text-anchor="middle">Stories</text>
<rect x="196" y="132" width="62" height="44" fill="#fff9db" stroke="#1e1e1e" stroke-width="1" rx="6"/>
<text x="227.0" y="157.8" font-family="'Segoe Print', 'Comic Sans MS', cursive, sans-serif" font-size="15" fill="#1e1e1e" text-anchor="middle">UX</text>
<rect x="268" y="132" width="92" height="44" fill="#fff9db" stroke="#1e1e1e" stroke-width="1" rx="6"/>
<text font-family="'Segoe Print', 'Comic Sans MS', cursive, sans-serif" font-size="14" fill="#1e1e1e" text-anchor="middle">
  <tspan x="314.0" y="148.8">System</tspan>
  <tspan x="314.0" y="166.3">Design</tspan>
</text>
<rect x="370" y="132" width="62" height="44" fill="#fff9db" stroke="#1e1e1e" stroke-width="1" rx="6"/>
<text x="401.0" y="157.8" font-family="'Segoe Print', 'Comic Sans MS', cursive, sans-serif" font-size="15" fill="#1e1e1e" text-anchor="middle">API</text>
<path d="M 774.0 126.0 L 781.0 137.0 L 895.0 137.0 L 904.0 148.0 L 913.0 137.0 L 1027.0 137.0 L 1034.0 126.0 Z" fill="none" stroke="#5f3dc4" stroke-width="1" stroke-linejoin="round"/>
<path d="M 904.0 196.0 L 904.0 152.0" fill="none" stroke="#5f3dc4" stroke-width="1" stroke-linejoin="round"/>
<line x1="904.0" y1="152.0" x2="908.5" y2="159.8" stroke="#5f3dc4" stroke-width="1" stroke-linecap="round"/>
<line x1="904.0" y1="152.0" x2="899.5" y2="159.8" stroke="#5f3dc4" stroke-width="1" stroke-linecap="round"/>
<rect x="820" y="196" width="168" height="52" fill="#f3f0ff" stroke="#1e1e1e" stroke-width="1" rx="6"/>
<text x="904.0" y="216.6" font-family="'Segoe Print', 'Comic Sans MS', cursive, sans-serif" font-size="14" fill="#5f3dc4" text-anchor="middle">Drive subsystem</text>
<text x="904.0" y="235.8" font-family="'Segoe Print', 'Comic Sans MS', cursive, sans-serif" font-size="11" fill="#5f3dc4" text-anchor="middle">/crank · /mint · /feature</text>
<rect x="554" y="196" width="116" height="52" fill="#fff9db" stroke="#1e1e1e" stroke-width="1" rx="6"/>
<text x="612.0" y="225.8" font-family="'Segoe Print', 'Comic Sans MS', cursive, sans-serif" font-size="15" fill="#1e1e1e" text-anchor="middle">Decisions</text>
<rect x="684" y="196" width="122" height="52" fill="#fff9db" stroke="#1e1e1e" stroke-width="1" rx="6"/>
<text x="745.0" y="225.8" font-family="'Segoe Print', 'Comic Sans MS', cursive, sans-serif" font-size="15" fill="#1e1e1e" text-anchor="middle">Discussion</text>
</svg>